<svg width="148" height="148" viewBox="0 0 148 148" fill="none" xmlns="http://www.w3.org/2000/svg">
<circle cx="74" cy="74" r="74" fill="#BADF76"/>
<circle cx="74" cy="74" r="74" fill="url(#paint0_linear)"/>
<circle cx="74" cy="74" r="74" fill="url(#paint1_linear)"/>
<circle cx="74" cy="74" r="68" stroke="black" stroke-width="2"/>
<path d="M91.7961 80.728C89.9511 83.9192 87.299 86.5689 84.1061 88.411C80.9133 90.2532 77.292 91.2229 73.6058 91.223C69.9196 91.223 66.2983 90.2533 63.1054 88.4112C59.9125 86.5691 57.2603 83.9195 55.4153 80.7283" stroke="black" stroke-width="4" stroke-linecap="round" stroke-linejoin="round"/>
<path d="M85.9508 110.386C76.9981 113.131 67.3843 112.803 58.6399 109.453C49.8955 106.102 42.5233 99.9231 37.6969 91.8985C32.8705 83.8739 30.8674 74.4654 32.0065 65.1707C33.1456 55.8761 37.3614 47.2297 43.9827 40.6081C50.604 33.9864 59.2502 29.7702 68.5448 28.6307C77.8394 27.4912 87.248 29.4939 95.2728 34.3199C103.298 39.1459 109.477 46.5178 112.828 55.262C116.179 64.0062 116.508 73.62 113.763 82.5729L85.9508 110.386Z" stroke="black" stroke-width="3" stroke-linecap="round" stroke-linejoin="round"/>
<path d="M58.1057 68.2296C61.1433 68.2296 63.6057 65.7672 63.6057 62.7296C63.6057 59.6921 61.1433 57.2296 58.1057 57.2296C55.0681 57.2296 52.6057 59.6921 52.6057 62.7296C52.6057 65.7672 55.0681 68.2296 58.1057 68.2296Z" fill="black"/>
<path d="M88.1057 68.2296C91.1433 68.2296 93.6057 65.7672 93.6057 62.7296C93.6057 59.6921 91.1433 57.2296 88.1057 57.2296C85.0681 57.2296 82.6057 59.6921 82.6057 62.7296C82.6057 65.7672 85.0681 68.2296 88.1057 68.2296Z" fill="black"/>
<path d="M56.742 121.516L54.1367 124.03L53.2285 123.725L56.5965 120.624L57.3558 118.361L58.1557 118.63L57.3964 120.892L58.2111 125.398L57.2946 125.09L56.742 121.516Z" fill="black"/>
<path d="M48.6227 117.913C48.8914 117.347 49.2215 116.897 49.613 116.564C50.0033 116.234 50.4258 116.04 50.8807 115.984C51.3356 115.927 51.796 116.009 52.2618 116.23C52.7171 116.446 53.068 116.749 53.3145 117.138C53.5598 117.53 53.6825 117.979 53.6824 118.485C53.6785 118.992 53.5499 119.52 53.2965 120.068L53.0987 120.484C52.835 121.04 52.5054 121.485 52.11 121.82C51.7146 122.154 51.2875 122.351 50.8287 122.409C50.366 122.468 49.9071 122.39 49.4518 122.174C48.9886 121.954 48.6343 121.648 48.389 121.256C48.1398 120.865 48.021 120.412 48.0326 119.895C48.043 119.381 48.1819 118.842 48.4494 118.279L48.6227 117.913ZM49.204 118.646C48.8787 119.332 48.7671 119.923 48.8691 120.419C48.9698 120.917 49.2676 121.284 49.7626 121.519C50.2443 121.747 50.7115 121.743 51.1639 121.507C51.6125 121.273 51.9952 120.832 52.3121 120.184L52.5136 119.759C52.8288 119.095 52.9379 118.506 52.8408 117.993C52.7398 117.482 52.4444 117.11 51.9548 116.877C51.4624 116.644 50.9965 116.642 50.557 116.871C50.1162 117.103 49.733 117.552 49.4074 118.218L49.204 118.646Z" fill="black"/>
<path d="M41.1946 117.392L43.523 113.717C43.8485 113.208 44.2736 112.893 44.7982 112.771C45.3204 112.648 45.8662 112.739 46.4358 113.044L46.6298 113.157C47.2213 113.531 47.5916 113.99 47.7408 114.532C47.8899 115.074 47.7898 115.626 47.4404 116.188L45.1072 119.871L44.4019 119.424L46.7209 115.764C46.9687 115.373 47.0539 115 46.9766 114.646C46.8977 114.294 46.659 113.992 46.2606 113.74C45.8572 113.484 45.4808 113.396 45.1316 113.477C44.7799 113.556 44.4802 113.791 44.2324 114.182L41.9111 117.846L41.1946 117.392Z" fill="black"/>
<path d="M36.3287 113.616L38.3658 108.374L33.2725 110.759L32.4732 110.012L36.8427 105.338L37.4591 105.914L35.7575 107.734L33.8631 109.645L38.9358 107.294L39.4077 107.735L37.4098 112.942L39.1764 110.93L40.878 109.11L41.4943 109.686L37.1248 114.36L36.3287 113.616Z" fill="black"/>
<path d="M32.5471 102.786L34.2542 104.852L35.9251 104.253L36.4792 104.924L29.99 107.115L29.5198 106.546L32.8943 100.584L33.4456 101.251L32.5471 102.786ZM33.5565 105.098L32.1712 103.421L30.5579 106.167L33.5565 105.098Z" fill="black"/>
<path d="M28.8348 100.203L25.2329 100.57L24.7071 99.769L29.2718 99.4109L31.2664 98.1012L31.7295 98.8065L29.7349 100.116L27.5919 104.162L27.0612 103.354L28.8348 100.203Z" fill="black"/>
<path d="M25.2705 90.279L26.3484 92.7334L28.1194 92.6132L28.4693 93.4099L21.6284 93.7454L21.3316 93.0694L26.2058 88.2556L26.5539 89.0483L25.2705 90.279ZM25.6102 92.7792L24.7355 90.7875L22.4336 92.9887L25.6102 92.7792Z" fill="black"/>
<path d="M22.74 86.7329C22.7583 87.4856 22.6731 88.0651 22.4843 88.4714C22.2919 88.8757 21.9833 89.1445 21.5584 89.2779C21.0776 89.4288 20.6206 89.362 20.1873 89.0773C19.7504 88.7907 19.4354 88.34 19.2423 87.725C19.1107 87.3058 19.0746 86.9071 19.1341 86.5292C19.1926 86.1485 19.3364 85.8239 19.5654 85.5555C19.7934 85.2843 20.0766 85.0957 20.4148 84.9895L20.6688 85.7987C20.2999 85.9145 20.0474 86.1227 19.9115 86.4233C19.7728 86.7248 19.7705 87.0894 19.9048 87.5171C20.0294 87.914 20.2148 88.1966 20.4611 88.3649C20.7038 88.5314 20.9802 88.5659 21.2905 88.4685C21.5392 88.3904 21.7174 88.2193 21.8249 87.9552C21.9287 87.6893 21.9724 87.281 21.9562 86.7303C21.939 86.1768 21.9723 85.7303 22.0561 85.3908C22.1363 85.0494 22.2694 84.7742 22.4556 84.5653C22.641 84.3536 22.8888 84.199 23.199 84.1016C23.6938 83.9463 24.1512 84.0145 24.5714 84.3064C24.9888 84.5991 25.2989 85.0683 25.5016 85.714C25.6332 86.1333 25.6764 86.5496 25.6311 86.963C25.5831 87.3773 25.4504 87.7275 25.2332 88.0137C25.0151 88.2971 24.7286 88.4946 24.3736 88.606L24.1196 87.7968C24.4885 87.681 24.7381 87.4537 24.8682 87.115C24.9946 86.7744 24.9863 86.3763 24.8433 85.9206C24.7099 85.4958 24.521 85.1973 24.2767 85.0253C24.0323 84.8533 23.7605 84.8143 23.4615 84.9082C23.1624 85.0021 22.9647 85.1793 22.8684 85.4398C22.7693 85.7012 22.7265 86.1323 22.74 86.7329Z" fill="black"/>
<path d="M21.6269 78.4857L22.4501 78.2633L21.6738 78.1747L17.0902 77.4487L17.0056 76.7418L21.292 74.9851L22.0391 74.7186L21.1677 74.6857L16.7037 74.2198L16.6029 73.3776L23.1404 74.1575L23.2318 74.9211L18.7589 76.7842L18.2866 76.9426L18.7829 76.985L23.5749 77.7878L23.6663 78.5514L17.497 80.8478L17.3967 80.01L21.6269 78.4857Z" fill="black"/>
<path d="M20.1332 68.4511L20.0978 71.2238L22.3652 71.2527L22.4063 68.0318L23.0962 68.0406L23.0443 72.1052L16.6464 72.0236L16.6977 68.0029L17.392 68.0118L17.3515 71.1887L19.4079 71.215L19.4433 68.4423L20.1332 68.4511Z" fill="black"/>
<path d="M22.6197 65.5432L22.97 62.5313L23.6553 62.611L23.207 66.4654L16.8514 65.7262L16.9494 64.8837L22.6197 65.5432Z" fill="black"/>
<path d="M23.306 60.853L23.9324 57.8862L24.6074 58.0287L23.8058 61.8254L17.5454 60.5036L17.7206 59.6738L23.306 60.853Z" fill="black"/>
<path d="M25.68 54.4002L19.7058 52.109L20.4548 50.1559C20.7034 49.5076 21.0242 49.0721 21.4171 48.8494C21.8111 48.624 22.2707 48.612 22.7959 48.8134C23.0749 48.9204 23.292 49.0947 23.4473 49.3362C23.5998 49.5767 23.6824 49.8562 23.6951 50.1749C23.9092 49.8867 24.1791 49.6984 24.5048 49.61C24.8288 49.5177 25.1659 49.5388 25.5161 49.673C26.0522 49.8787 26.4068 50.2139 26.58 50.6788C26.7531 51.1437 26.718 51.6935 26.4746 52.3281L25.68 54.4002ZM23.1878 52.5408L25.3379 53.3653L25.8367 52.0646C25.9773 51.6981 25.9936 51.3733 25.8856 51.0903C25.776 50.8035 25.5543 50.5961 25.2206 50.4681C24.5011 50.1922 23.9914 50.4454 23.6914 51.2277L23.1878 52.5408ZM22.556 52.2984L23.0123 51.1085C23.1445 50.7638 23.1637 50.4559 23.0701 50.1846C22.9775 49.9107 22.7835 49.717 22.4881 49.6037C22.1598 49.4778 21.8851 49.4823 21.664 49.6171C21.4401 49.7509 21.2531 50.0134 21.1031 50.4046L20.6562 51.5699L22.556 52.2984Z" fill="black"/>
<path d="M24.1433 42.2469L28.0075 44.2458C28.5422 44.5257 28.8932 44.9216 29.0604 45.4337C29.229 45.9431 29.186 46.4948 28.9315 47.0888L28.8364 47.2919C28.5147 47.9138 28.0904 48.3227 27.5636 48.5186C27.0368 48.7144 26.478 48.6629 25.8872 48.3639L22.0152 46.3609L22.3988 45.6193L26.2474 47.6101C26.6585 47.8228 27.0372 47.8752 27.3832 47.7672C27.7267 47.658 28.0068 47.3938 28.2236 46.9749C28.443 46.5507 28.4974 46.1682 28.3867 45.8273C28.2774 45.4838 28.0172 45.2058 27.6061 44.9931L23.7536 43.0003L24.1433 42.2469Z" fill="black"/>
<path d="M30.9667 43.413L30.5178 44.1274L25.1 40.7234L25.5488 40.009L30.9667 43.413Z" fill="black"/>
<path d="M31.904 40.7789L33.7058 38.34L34.2607 38.75L31.955 41.871L26.8086 38.069L27.3126 37.3869L31.904 40.7789Z" fill="black"/>
<path d="M34.7455 38.1692L30.0072 33.8694L31.2209 32.5318C31.595 32.1196 32.0169 31.8378 32.4865 31.6864C32.9562 31.5351 33.437 31.5263 33.9288 31.66C34.4226 31.7916 34.8885 32.0542 35.3265 32.4477L35.6292 32.7224C36.0761 33.128 36.389 33.5701 36.5678 34.0488C36.7485 34.5254 36.7832 35.0059 36.6719 35.4904C36.5626 35.9728 36.3172 36.4285 35.9356 36.8577L34.7455 38.1692ZM31.0884 33.7111L34.8016 37.0807L35.3981 36.4233C35.8352 35.9417 36.0251 35.4316 35.9678 34.893C35.9126 34.3523 35.6083 33.8309 35.0551 33.3289L34.7785 33.0779C34.2404 32.5896 33.7076 32.3376 33.18 32.3217C32.6522 32.3017 32.1755 32.5218 31.7499 32.9822L31.0884 33.7111Z" fill="black"/>
<path d="M40.6148 24.961L38.9962 26.2298L42.515 30.7191L41.8544 31.2369L38.3356 26.7476L36.7203 28.0136L36.292 27.4671L40.1865 24.4146L40.6148 24.961Z" fill="black"/>
<path d="M49.2803 26.215L48.5549 26.6544L47.0226 24.1248L44.2637 25.7961L45.7961 28.3257L45.0744 28.7628L41.7592 23.2902L42.4809 22.853L43.9062 25.206L46.6651 23.5347L45.2397 21.1818L45.9651 20.7423L49.2803 26.215Z" fill="black"/>
<path d="M52.8327 21.2492L50.3061 22.3918L51.2404 24.458L54.1754 23.1307L54.4597 23.7593L50.7559 25.4343L48.1194 19.6043L51.7832 17.9474L52.0693 18.5801L49.1743 19.8892L50.0218 21.7632L52.5484 20.6206L52.8327 21.2492Z" fill="black"/>
<path d="M62.5408 19.1079C62.6384 19.7822 62.5308 20.352 62.2181 20.8172C61.9074 21.2789 61.4152 21.5994 60.7413 21.7787C60.0109 21.9731 59.3552 21.8671 58.7741 21.4609C58.1959 21.0539 57.79 20.4116 57.5565 19.534L57.3982 18.9394C57.2453 18.3647 57.2127 17.8322 57.3005 17.342C57.3912 16.851 57.5939 16.4393 57.9086 16.1069C58.2226 15.7717 58.6274 15.5382 59.1228 15.4064C59.7797 15.2316 60.3552 15.2754 60.8495 15.538C61.3431 15.7978 61.7087 16.2431 61.9463 16.8741L61.1267 17.0922C60.9248 16.6185 60.6756 16.3028 60.379 16.1453C60.0853 15.987 59.7261 15.9643 59.3014 16.0773C58.7805 16.216 58.4226 16.5174 58.2278 16.9815C58.0358 17.4449 58.0344 18.0319 58.2235 18.7425L58.3829 19.3413C58.5614 20.0123 58.8436 20.5087 59.2293 20.8304C59.6151 21.1522 60.06 21.246 60.5639 21.1119C61.0169 20.9914 61.3366 20.7972 61.523 20.5293C61.7115 20.2578 61.7775 19.8567 61.7212 19.326L62.5408 19.1079Z" fill="black"/>
<path d="M68.4141 17.2353C68.5002 17.8563 68.471 18.4135 68.3265 18.9067C68.1815 19.3971 67.9344 19.7908 67.5852 20.0876C67.2359 20.3845 66.806 20.5684 66.2952 20.6392C65.7961 20.7084 65.3366 20.6479 64.9169 20.4577C64.4967 20.2645 64.1479 19.9565 63.8704 19.5336C63.5953 19.1074 63.4135 18.5958 63.3248 17.9988L63.2614 17.5417C63.1769 16.9323 63.2081 16.3793 63.3552 15.8827C63.5022 15.3862 63.7516 14.9878 64.1034 14.6876C64.4576 14.3841 64.8843 14.1977 65.3834 14.1285C65.8913 14.0581 66.3553 14.1194 66.7754 14.3126C67.1981 14.5024 67.5463 14.8165 67.82 15.2547C68.0933 15.69 68.2729 16.2167 68.3586 16.8348L68.4141 17.2353ZM67.526 16.9414C67.4217 16.1898 67.191 15.6347 66.8336 15.2761C66.4759 14.9146 66.0257 14.7715 65.483 14.8467C64.9549 14.92 64.5664 15.1794 64.3177 15.625C64.0714 16.0674 63.9934 16.6461 64.0837 17.3611L64.1483 17.8269C64.2493 18.5553 64.4812 19.1073 64.8438 19.4829C65.209 19.8552 65.66 20.0041 66.1968 19.9297C66.7366 19.8548 67.1273 19.601 67.3689 19.1682C67.6102 18.7325 67.6843 18.1469 67.5912 17.4115L67.526 16.9414Z" fill="black"/>
<path d="M75.2351 17.0115C75.2414 17.6384 75.1414 18.1873 74.9352 18.6581C74.7289 19.126 74.4336 19.4849 74.0494 19.7349C73.6652 19.9848 73.2152 20.1124 72.6996 20.1175C72.1958 20.1226 71.7478 20.004 71.3557 19.7618C70.9636 19.5167 70.6568 19.1667 70.4355 18.7119C70.217 18.2541 70.1019 17.7234 70.09 17.12L70.0854 16.6586C70.0792 16.0434 70.1807 15.4989 70.3899 15.0251C70.599 14.5513 70.8972 14.188 71.2843 13.9351C71.6743 13.6792 72.1213 13.5488 72.6252 13.5437C73.1378 13.5386 73.5902 13.6586 73.9824 13.9037C74.3774 14.1459 74.6827 14.5017 74.8983 14.9713C75.114 15.4379 75.2249 15.9832 75.2311 16.6072L75.2351 17.0115ZM74.3917 16.6068C74.3841 15.8481 74.226 15.2681 73.9173 14.8668C73.6085 14.4627 73.1802 14.2633 72.6324 14.2688C72.0992 14.2741 71.6809 14.4819 71.3774 14.8922C71.0767 15.2995 70.9256 15.8636 70.924 16.5843L70.9287 17.0545C70.9361 17.7898 71.0956 18.3669 71.4075 18.7857C71.7222 19.2015 72.1505 19.4067 72.6925 19.4013C73.2374 19.3958 73.6573 19.1939 73.9521 18.7954C74.247 18.394 74.3951 17.8227 74.3964 17.0814L74.3917 16.6068Z" fill="black"/>
<path d="M77.9502 19.5164L80.966 19.8321L80.8942 20.5183L77.0349 20.1143L77.701 13.7506L78.5445 13.8389L77.9502 19.5164Z" fill="black"/>
<path d="M85.7112 18.4554L82.9959 17.893L82.536 20.1134L85.6903 20.7667L85.5504 21.4423L81.5699 20.6179L82.8675 14.3525L86.805 15.1679L86.6642 15.8478L83.5529 15.2035L83.1358 17.2174L85.8512 17.7798L85.7112 18.4554Z" fill="black"/>
<path d="M90.0525 19.7889C89.4311 19.3639 89.0107 18.956 88.7913 18.5655C88.5757 18.173 88.5379 17.7655 88.678 17.3428C88.8365 16.8644 89.1578 16.5327 89.642 16.3474C90.1299 16.1604 90.6798 16.1682 91.2916 16.3709C91.7088 16.5091 92.0533 16.7128 92.3252 16.9819C92.5999 17.252 92.7793 17.5583 92.8633 17.9009C92.9501 18.2445 92.9377 18.5845 92.8262 18.921L92.0211 18.6542C92.1427 18.2871 92.1213 17.9606 91.9568 17.6746C91.7932 17.3859 91.4987 17.171 91.0732 17.03C90.6783 16.8991 90.3406 16.8845 90.0601 16.9859C89.7832 17.0856 89.5937 17.2897 89.4914 17.5984C89.4094 17.8459 89.4441 18.0904 89.5955 18.332C89.7507 18.5716 90.0564 18.8458 90.5128 19.1544C90.9719 19.464 91.3148 19.7519 91.5413 20.0184C91.7715 20.2829 91.917 20.5518 91.9777 20.825C92.0412 21.0991 92.0218 21.3905 91.9195 21.6992C91.7564 22.1914 91.4336 22.5227 90.9513 22.6931C90.4698 22.8608 89.9079 22.8381 89.2655 22.6253C88.8483 22.487 88.4852 22.2788 88.1762 22.0005C87.8682 21.7194 87.6615 21.4071 87.5562 21.0635C87.4537 20.7209 87.4609 20.373 87.5779 20.0198L88.383 20.2866C88.2614 20.6537 88.3 20.989 88.4988 21.2925C88.7013 21.5942 89.0292 21.8201 89.4825 21.9703C89.9052 22.1104 90.2577 22.1316 90.5401 22.0338C90.8225 21.936 91.013 21.7383 91.1116 21.4408C91.2102 21.1432 91.182 20.8792 91.0268 20.6488C90.8726 20.4156 90.5479 20.129 90.0525 19.7889Z" fill="black"/>
<path d="M98.9005 20.3017L97.029 19.4487L94.6633 24.6391L93.8995 24.2909L96.2653 19.1006L94.3979 18.2494L94.6858 17.6176L99.1884 19.6699L98.9005 20.3017Z" fill="black"/>
<path d="M106.836 25.1594L105.133 24.0068L101.936 28.7308L101.241 28.2604L104.438 23.5363L102.738 22.3862L103.127 21.8111L107.225 24.5844L106.836 25.1594Z" fill="black"/>
<path d="M108.402 33.8842L107.763 33.326L109.71 31.0993L107.281 28.9764L105.335 31.2031L104.699 30.6477L108.911 25.8305L109.546 26.3858L107.735 28.457L110.164 30.5799L111.974 28.5087L112.613 29.0669L108.402 33.8842Z" fill="black"/>
<path d="M110.224 35.7754L109.643 35.1639L114.281 30.7557L114.862 31.3672L110.224 35.7754Z" fill="black"/>
<path d="M114.478 40.8343L113.952 40.1687L115.825 34.5849L111.956 37.6408L111.43 36.9752L116.452 33.0096L116.977 33.6752L115.092 39.2796L118.979 36.2101L119.499 36.8688L114.478 40.8343Z" fill="black"/>
<path d="M118.679 45.9262C118.302 45.8989 117.946 45.7576 117.613 45.5024C117.285 45.2482 116.988 44.8996 116.724 44.4566C116.457 44.0087 116.325 43.5488 116.327 43.077C116.331 42.6037 116.47 42.156 116.744 41.7337C117.019 41.314 117.41 40.9494 117.918 40.64L118.398 40.3543C119.226 39.8609 119.982 39.671 120.667 39.7846C121.354 39.9007 121.905 40.3086 122.322 41.0083C122.664 41.5821 122.792 42.1316 122.706 42.6569C122.623 43.1807 122.335 43.6421 121.843 44.0411L121.411 43.3162C122.057 42.7469 122.163 42.0973 121.728 41.3675C121.439 40.8817 121.048 40.615 120.556 40.5673C120.067 40.5206 119.499 40.6887 118.851 41.0716L118.402 41.3393C117.785 41.7067 117.378 42.1401 117.181 42.6394C116.987 43.1373 117.033 43.6265 117.319 44.1072C117.481 44.379 117.653 44.5989 117.835 44.7667C118.017 44.9346 118.219 45.0425 118.442 45.0904L119.677 44.3548L118.919 43.0826L119.508 42.7317L120.695 44.7249L118.679 45.9262Z" fill="black"/>
<path d="M123.673 51.2101L127.269 51.6315L127.609 52.5271L123.075 51.8883L120.844 52.735L120.544 51.9462L122.775 51.0995L125.744 47.6133L126.087 48.5172L123.673 51.2101Z" fill="black"/>
<path d="M125.978 59.5245C125.37 59.6768 124.813 59.7076 124.307 59.6168C123.804 59.5253 123.386 59.3219 123.053 59.0065C122.721 58.6912 122.492 58.2834 122.367 57.7832C122.244 57.2944 122.255 56.8311 122.399 56.3934C122.546 55.9549 122.815 55.575 123.205 55.2537C123.6 54.9345 124.089 54.6988 124.673 54.5465L125.12 54.4344C125.717 54.285 126.27 54.2567 126.78 54.3496C127.289 54.4425 127.712 54.6477 128.048 54.9652C128.388 55.2848 128.619 55.689 128.742 56.1778C128.866 56.6752 128.855 57.1431 128.708 57.5815C128.565 58.0221 128.29 58.402 127.884 58.7212C127.48 59.0397 126.976 59.2747 126.37 59.4263L125.978 59.5245ZM126.175 58.61C126.911 58.4256 127.438 58.1366 127.756 57.7428C128.077 57.3484 128.171 56.8854 128.038 56.354C127.909 55.8367 127.609 55.4784 127.139 55.2789C126.673 55.0815 126.089 55.0661 125.388 55.2326L124.932 55.3468C124.219 55.5255 123.695 55.8152 123.36 56.2161C123.029 56.6191 122.93 57.0835 123.061 57.6092C123.194 58.1378 123.488 58.499 123.944 58.6929C124.403 58.886 124.993 58.8967 125.715 58.7252L126.175 58.61Z" fill="black"/>
<path d="M130.331 65.7145L126.013 66.2477C125.414 66.3188 124.901 66.1903 124.473 65.8622C124.047 65.5371 123.77 65.0576 123.645 64.4236L123.609 64.2023C123.523 63.5074 123.642 62.9303 123.966 62.4711C124.29 62.0119 124.78 61.7388 125.437 61.6519L129.763 61.1176L129.866 61.9463L125.565 62.4773C125.106 62.534 124.764 62.7047 124.539 62.9892C124.318 63.2734 124.236 63.6496 124.293 64.1177C124.352 64.5917 124.523 64.938 124.807 65.1569C125.091 65.3786 125.463 65.4611 125.922 65.4044L130.227 64.8728L130.331 65.7145Z" fill="black"/>
<path d="M125.953 75.3987C125.281 75.2879 124.77 75.0131 124.421 74.5744C124.075 74.1387 123.918 73.5726 123.951 72.8761C123.987 72.1211 124.286 71.5281 124.849 71.097C125.411 70.6688 126.146 70.4761 127.054 70.5188L127.668 70.5477C128.262 70.5756 128.78 70.7055 129.22 70.9374C129.661 71.1722 129.992 71.4899 130.214 71.8904C130.438 72.291 130.539 72.7474 130.515 73.2596C130.483 73.9385 130.267 74.4739 129.867 74.8657C129.47 75.2576 128.935 75.4715 128.262 75.5073L128.302 74.6601C128.815 74.6109 129.191 74.4687 129.431 74.2336C129.67 74.0015 129.8 73.6659 129.821 73.2269C129.846 72.6885 129.667 72.2562 129.284 71.9303C128.9 71.6072 128.341 71.4284 127.606 71.3938L126.987 71.3647C126.294 71.3321 125.735 71.451 125.312 71.7215C124.889 71.9919 124.665 72.3876 124.64 72.9085C124.618 73.3768 124.707 73.7402 124.906 73.9989C125.108 74.2606 125.47 74.4448 125.993 74.5515L125.953 75.3987Z" fill="black"/>
<path d="M124.92 79.9174L125.342 77.2701L123.787 76.4128L123.924 75.5535L129.858 78.9733L129.742 79.7024L123.038 81.1128L123.175 80.2578L124.92 79.9174ZM125.987 77.6311L125.645 79.7793L128.772 79.174L125.987 77.6311Z" fill="black"/>
<path d="M121.612 86.2587L121.845 85.443L127.469 83.6959L122.727 82.345L122.96 81.5293L129.113 83.2824L128.881 84.0981L123.233 85.8475L127.996 87.2045L127.766 88.0117L121.612 86.2587Z" fill="black"/>
<path d="M123.157 97.1229L124.06 95.275L118.935 92.7711L119.303 92.0169L124.428 94.5209L125.329 92.6769L125.953 92.9817L123.781 97.4277L123.157 97.1229Z" fill="black"/>
<path d="M114.8 99.8148L115.262 99.1036L117.742 100.715L119.499 98.0097L117.019 96.3986L117.479 95.691L122.844 99.1765L122.385 99.884L120.078 98.3855L118.321 101.09L120.628 102.589L120.166 103.3L114.8 99.8148Z" fill="black"/>
<path d="M113.127 101.967L113.651 101.306L118.666 105.279L118.142 105.941L113.127 101.967Z" fill="black"/>
<path d="M108.668 106.931L109.254 106.318L115.044 107.397L111.48 103.99L112.066 103.377L116.691 107.798L116.105 108.411L110.293 107.324L113.873 110.746L113.293 111.352L108.668 106.931Z" fill="black"/>
<path d="M108.015 111.463L108.104 110.338L106.733 108.666L107.386 108.131L111.442 113.079L110.79 113.614L108.784 111.167L108.591 115.417L107.803 116.063L107.958 112.282L103.593 111.24L104.375 110.6L108.015 111.463Z" fill="black"/>
<path d="M97.9105 118.226C97.6034 117.679 97.427 117.15 97.3812 116.638C97.3369 116.129 97.4231 115.672 97.6396 115.268C97.8562 114.864 98.1893 114.536 98.6388 114.283C99.0781 114.036 99.5279 113.924 99.9881 113.948C100.45 113.974 100.887 114.134 101.3 114.426C101.712 114.722 102.068 115.132 102.369 115.655L102.595 116.057C102.896 116.594 103.069 117.12 103.114 117.636C103.158 118.152 103.072 118.614 102.854 119.022C102.635 119.434 102.306 119.763 101.867 120.01C101.42 120.261 100.966 120.374 100.504 120.347C100.041 120.325 99.6024 120.16 99.1874 119.852C98.7739 119.547 98.4143 119.122 98.1086 118.578L97.9105 118.226ZM98.8446 118.175C99.2164 118.836 99.6341 119.269 100.098 119.472C100.563 119.678 101.034 119.646 101.512 119.378C101.977 119.117 102.243 118.733 102.312 118.227C102.38 117.726 102.241 117.159 101.895 116.526L101.665 116.116C101.305 115.475 100.887 115.046 100.412 114.829C99.9364 114.616 99.4622 114.642 98.9897 114.907C98.5146 115.174 98.2437 115.553 98.177 116.045C98.1116 116.538 98.2567 117.11 98.6121 117.761L98.8446 118.175Z" fill="black"/>
<path d="M92.8808 120.281L95.3509 119.228L94.2431 116.629L95.0193 116.298L97.5278 122.184L93.8812 123.738L93.609 123.1L96.4793 121.876L95.6214 119.863L93.1513 120.916L92.8808 120.281Z" fill="black"/>
<defs>
<linearGradient id="paint0_linear" x1="74" y1="0" x2="74" y2="148" gradientUnits="userSpaceOnUse">
<stop stop-color="#7AC8F0"/>
<stop offset="1" stop-color="#7AC8F0" stop-opacity="0"/>
</linearGradient>
<linearGradient id="paint1_linear" x1="74" y1="0" x2="74" y2="148" gradientUnits="userSpaceOnUse">
<stop stop-color="#D1ACFF"/>
<stop offset="1" stop-color="white" stop-opacity="0"/>
</linearGradient>
</defs>
</svg>
